<svg width="612" height="204" viewBox="0 0 612 204" fill="none" xmlns="http://www.w3.org/2000/svg">
<path d="M235.203 81.4268H265.003V87.9268H242.003V100.127H263.203V106.627H242.003V120.327H265.703V126.827H235.203V81.4268Z" fill="#0053CC"/>
<path d="M293.803 81.4268H299.603L316.803 126.727H309.603L305.603 116.327H287.603L283.603 126.727H276.403L293.803 81.4268ZM303.103 109.827L296.603 91.8268L290.103 109.827H303.103Z" fill="#0053CC"/>
<path d="M329.303 81.4268H347.303C354.803 81.4268 361.003 87.5268 361.003 95.1268C361.003 100.327 358.503 103.527 356.003 105.427C354.503 106.627 352.803 107.427 351.003 108.027L362.103 126.727H354.603L344.203 108.727H336.303V126.727H329.503V81.4268H329.303ZM347.303 102.327C350.903 102.327 354.103 99.1268 354.103 95.1268C354.103 91.1268 350.903 87.9268 347.303 87.9268H336.203V102.327H347.303Z" fill="#0053CC"/>
<path d="M415.203 111.227C413.103 119.827 405.803 127.027 395.403 127.027C383.903 127.027 373.803 116.927 373.803 104.027C373.803 91.1269 383.903 81.0269 395.403 81.0269C405.503 81.0269 412.703 88.2268 414.803 96.8268H407.703C406.203 91.4268 402.103 87.1268 395.503 87.1268C388.003 87.1268 380.803 94.2269 380.803 104.027C380.803 113.827 388.103 120.927 395.503 120.927C402.503 120.927 406.603 116.527 408.103 111.227H415.203Z" fill="#0053CC"/>
<path d="M429.903 81.4268H436.703V100.427H457.503V81.4268H464.303V126.727H457.503V106.927H436.703V126.727H429.903V81.4268Z" fill="#0053CC"/>
<path d="M482.403 81.4268H512.203V87.9268H489.203V100.127H510.403V106.627H489.203V120.327H512.903V126.827H482.403V81.4268Z" fill="#0053CC"/>
<path d="M529.103 81.4268H547.103C554.603 81.4268 560.803 87.5268 560.803 95.1268C560.803 100.327 558.303 103.527 555.803 105.427C554.303 106.627 552.603 107.427 550.803 108.027L561.903 126.727H554.403L544.003 108.727H536.103V126.727H529.303V81.4268H529.103ZM547.103 102.327C550.703 102.327 553.903 99.1268 553.903 95.1268C553.903 91.1268 550.703 87.9268 547.103 87.9268H536.003V102.327H547.103Z" fill="#0053CC"/>
<path d="M588.403 81.4268H594.203L611.403 126.727H604.203L600.203 116.327H582.203L578.203 126.727H571.003L588.403 81.4268ZM597.703 109.827L591.203 91.8268L584.703 109.827H597.703Z" fill="#0053CC"/>
<path d="M41.7028 183.327C24.9028 170.927 12.4028 153.527 5.60278 133.727H35.4028C41.2028 145.727 50.4028 156.027 61.5028 163.527L41.7028 183.327ZM14.4028 139.727C20.4028 153.527 29.6028 165.727 41.2028 175.327L52.3028 164.227C43.8028 157.527 36.8028 149.127 31.7028 139.727H14.4028Z" fill="#0053CC"/>
<path d="M102.103 203.227C86.2028 203.327 70.5028 199.427 56.4028 192.527L77.4028 171.527C118.003 186.727 166.403 159.427 174.203 116.827H1.6028C-13.2972 37.8269 78.8028 -27.3732 148.603 11.6268L127.603 32.5268C88.4028 15.1268 35.1028 45.6268 29.3028 87.9268H202.403C202.903 92.5268 203.303 97.2268 203.303 101.727C204.403 156.227 156.603 204.127 102.103 203.227ZM66.8028 190.527C105.603 206.627 153.803 192.727 178.203 158.927C192.003 140.827 198.903 116.827 196.903 93.9268H22.5028C24.4028 46.2268 81.4028 8.72684 126.103 25.5268L138.303 13.4268C76.2028 -15.4732 -3.0972 42.6269 6.9028 110.827H181.203C176.803 158.827 124.903 193.227 79.0028 178.327L66.8028 190.527Z" fill="#0053CC"/>
<path d="M198.703 71.1269H169.103C163.603 58.9269 154.503 48.4269 143.503 40.7269L163.203 21.0269C180.003 33.7269 192.303 51.3269 198.703 71.1269ZM172.803 65.1269H190.003C184.303 51.2269 175.203 38.9269 163.603 29.0269L152.503 40.1269C161.003 47.0269 167.903 55.5269 172.803 65.1269Z" fill="#0053CC"/>
</svg>
