<svg width="184" height="48" viewBox="0 0 184 48" fill="none" xmlns="http://www.w3.org/2000/svg">
<path fill-rule="evenodd" clip-rule="evenodd" d="M123.066 30.4384H133.818V16.3904H123.066C121.21 16.3904 119.482 18.088 119.482 19.9024V26.9264C119.482 28.7408 121.21 30.4384 123.066 30.4384ZM166.078 30.4384H176.83V16.3904H166.078C164.222 16.3904 162.494 18.088 162.494 19.9024V26.9264C162.494 28.7408 164.222 30.4384 166.078 30.4384ZM140.987 11.1216V35.7072C140.987 36.4816 139.987 37.464 139.195 37.464L135.611 37.5008C134.818 37.5008 133.819 36.4816 133.819 35.7088V34.536L132.192 36.4496C131.696 37.1104 130.474 37.464 129.637 37.464H123.066C117.299 37.464 112.312 32.5632 112.312 26.9264V19.9024C112.312 14.2656 117.299 9.3664 123.064 9.3664H139.195C139.987 9.3664 140.987 10.3472 140.987 11.1216ZM184 11.1216V35.7072C184 36.4816 183.002 37.464 182.208 37.464L178.624 37.5008C177.83 37.5008 176.832 36.4816 176.832 35.7088V34.536L175.205 36.4496C174.709 37.1104 173.486 37.464 172.65 37.464H166.078C160.312 37.464 155.325 32.5632 155.325 26.9264V19.9024C155.325 14.2656 160.312 9.3664 166.077 9.3664H182.208C183 9.3664 184 10.3472 184 11.1216ZM64.52 16.3904H53.7664C51.9104 16.3904 50.1824 18.088 50.1824 19.9024V26.9264C50.1824 28.7408 51.9104 30.4384 53.7664 30.4384H64.5184L64.52 16.3904ZM71.688 11.1216V38.048C71.688 43.6848 66.7008 48 60.936 48H55.392C54.568 48 53.792 47.6224 53.2944 46.9792L50.1392 42.8992C49.616 42.2208 49.9088 40.976 50.7776 40.976H60.9328C62.7888 40.976 64.5168 39.8624 64.5168 38.048V37.464H53.7648C47.9984 37.464 43.0128 32.5632 43.0128 26.9264V19.9024C43.0128 14.2656 47.9984 9.3664 53.7648 9.3664H60.336C61.1584 9.3664 62.0544 10.0144 62.6352 10.536L64.5184 12.2928V11.12C64.5184 10.3472 65.5184 9.3648 66.3104 9.3648H69.8944C70.688 9.3648 71.6864 10.3456 71.6864 11.12L71.688 11.1216ZM7.1696 26.928C7.1696 28.7424 8.8976 30.44 10.7536 30.44H21.5056V16.392H10.7536C8.8976 16.392 7.1696 18.0896 7.1696 19.904V26.928ZM26.88 0C27.6752 0 28.6736 0.9808 28.6736 1.7568V35.7088C28.6736 36.4816 27.6752 37.464 26.8816 37.464H23.2976C22.504 37.464 21.5056 36.4832 21.5056 35.7072V34.536L19.6256 36.5072C19.1168 37.0608 18.1344 37.464 17.3216 37.464H10.7552C4.9872 37.464 0 32.5632 0 26.9264V19.9568C0 14.32 4.9872 9.3648 10.752 9.3648H21.5072V1.7584C21.5072 0.9824 22.5056 0.0016 23.2992 0.0016H26.8832L26.88 0ZM100.96 23.4144L110.938 11.04C111.493 10.3664 111.002 9.3632 110.117 9.3632H104.411C103.979 9.3632 103.571 9.5536 103.298 9.88L93.1952 22.2432V1.7568C93.1952 0.9808 92.1952 0 91.4032 0H87.8192C87.0256 0 86.0272 0.9808 86.0272 1.7568V35.7088C86.0272 36.4816 87.0256 37.464 87.8192 37.464H91.4032C92.1952 37.464 93.1952 36.4816 93.1952 35.7072V24.5856L103.302 36.976C103.574 37.3072 103.987 37.5008 104.422 37.5008H110.122C111.008 37.5008 111.498 36.4976 110.944 35.824L100.96 23.4144ZM77.0656 0C76.272 0 75.2736 0.9808 75.2736 1.7568V5.2688C75.2736 6.0432 76.272 7.024 77.0656 7.024H80.6496C81.4416 7.024 82.4416 6.0432 82.4416 5.2688V1.7568C82.4416 0.9808 81.4416 0 80.6496 0H77.0656ZM77.0656 9.3664C76.272 9.3664 75.2736 10.3472 75.2736 11.1216V35.7072C75.2736 36.4816 76.5536 37.4992 77.3456 37.4992L80.6496 37.464C81.4416 37.464 82.4416 36.4816 82.4416 35.7072V11.1216C82.4416 10.3472 81.4416 9.3664 80.6496 9.3664H77.0656ZM34.0512 0C33.2592 0 32.2592 0.9808 32.2592 1.7568V5.2688C32.2592 6.0432 33.2592 7.024 34.0512 7.024H37.6352C38.4288 7.024 39.4272 6.0432 39.4272 5.2688V1.7568C39.4272 0.9808 38.4288 0 37.6352 0H34.0512ZM34.0512 9.3664C33.2592 9.3664 32.2592 10.3472 32.2592 11.1216V35.7072C32.2592 36.4816 33.2592 37.464 34.0512 37.464H37.6352C38.4288 37.464 39.4272 36.4816 39.4272 35.7072V11.1216C39.4272 10.3472 38.4288 9.3664 37.6352 9.3664H34.0512ZM151.741 1.7568V35.7088C151.741 36.4816 150.741 37.464 149.949 37.464H146.365C145.571 37.464 144.573 36.4816 144.573 35.7072V1.7552C144.573 0.9808 145.571 0 146.365 0H149.949C150.741 0 151.741 0.9808 151.741 1.7568Z" fill="#EE384E"/>
</svg>
