<svg width="608" height="209" viewBox="0 0 608 209" fill="none" xmlns="http://www.w3.org/2000/svg">
<path d="M230 81.8H229.4V82.4V127.8V128.4H230H260.5H261.1V127.8V121.3V120.7H260.5H237.4V108.2H258H258.6V107.6V101.1V100.5H258H237.4V89.5H259.8H260.4V88.9V82.4V81.8H259.8H230Z" fill="white" stroke="white" stroke-width="1.2"/>
<path d="M288.6 81.8H288.188L288.04 82.1848L270.64 127.485L270.327 128.3H271.2H278.4H278.812L278.96 127.915L282.812 117.9H299.988L303.84 127.915L303.988 128.3H304.4H311.6H312.47L312.161 127.487L294.961 82.187L294.814 81.8H294.4H288.6ZM285.755 110.2L291.4 94.5665L297.045 110.2H285.755Z" fill="white" stroke="white" stroke-width="1.2"/>
<path d="M331.7 127.7V110.3H338.654L348.881 128L349.054 128.3H349.4H356.9H357.954L357.416 127.394L346.69 109.324C348.278 108.738 349.799 107.968 351.169 106.873C353.782 104.886 356.4 101.523 356.4 96.1C356.4 88.1658 349.929 81.8 342.1 81.8H324.9H324.3H324.1V82.4H323.7V127.7V128.3H324.3H331.1H331.7V127.7ZM348.3 96.1C348.3 99.791 345.347 102.7 342.1 102.7H331.6V89.5H342.1C345.347 89.5 348.3 92.409 348.3 96.1Z" fill="white" stroke="white" stroke-width="1.2"/>
<path d="M410.583 112.342L410.764 111.6H410H402.9H402.446L402.323 112.037C400.881 117.132 396.98 121.3 390.3 121.3C383.28 121.3 376.2 114.519 376.2 105C376.2 95.4785 383.182 88.7 390.3 88.7C396.573 88.7 400.477 92.7602 401.922 97.9606L402.044 98.4H402.5H409.6H410.364L410.183 97.6577C408.029 88.8371 400.623 81.4 390.2 81.4C378.345 81.4 368 91.7933 368 105C368 118.207 378.345 128.6 390.2 128.6C400.914 128.6 408.427 121.172 410.583 112.342Z" fill="white" stroke="white" stroke-width="1.2"/>
<path d="M424.7 81.8H424.1V82.4V127.7V128.3H424.7H431.5H432.1V127.7V108.5H451.7V127.7V128.3H452.3H459.1H459.7V127.7V82.4V81.8H459.1H452.3H451.7V82.4V100.8H432.1V82.4V81.8H431.5H424.7Z" fill="white" stroke="white" stroke-width="1.2"/>
<path d="M477.2 81.8H476.6V82.4V127.8V128.4H477.2H507.7H508.3V127.8V121.3V120.7H507.7H484.6V108.2H505.2H505.8V107.6V101.1V100.5H505.2H484.6V89.5H507H507.6V88.9V82.4V81.8H507H477.2Z" fill="white" stroke="white" stroke-width="1.2"/>
<path d="M531.5 127.7V110.3H538.454L548.68 128L548.854 128.3H549.2H556.7H557.754L557.216 127.394L546.49 109.324C548.078 108.738 549.598 107.968 550.969 106.873C553.581 104.886 556.2 101.523 556.2 96.1C556.2 88.1658 549.728 81.8 541.9 81.8H524.7H524.1H523.9V82.4H523.5V127.7V128.3H524.1H530.9H531.5V127.7ZM548.1 96.1C548.1 99.791 545.147 102.7 541.9 102.7H531.4V89.5H541.9C545.147 89.5 548.1 92.4089 548.1 96.1Z" fill="white" stroke="white" stroke-width="1.2"/>
<path d="M583.2 81.8H582.788L582.64 82.1848L565.24 127.485L564.927 128.3H565.8H573H573.412L573.56 127.915L577.412 117.9H594.588L598.44 127.915L598.588 128.3H599H606.2H607.07L606.761 127.487L589.561 82.187L589.414 81.8H589H583.2ZM580.355 110.2L586 94.5665L591.645 110.2H580.355Z" fill="white" stroke="white" stroke-width="1.2"/>
<path d="M44.1089 187.131L44.8014 187.642L45.4099 187.034L65.2099 167.234L66.067 166.377L65.0626 165.698C54.0991 158.29 45.0214 148.122 39.3032 136.292L39.0301 135.727H38.4028H8.60278H7.20202L7.657 137.052C14.5205 157.036 27.1397 174.607 44.1089 187.131ZM53.8056 167.31L44.1423 176.973C33.3816 167.893 24.7585 156.532 18.9416 143.727H34.1101C39.0689 152.708 45.7482 160.77 53.8056 167.31Z" fill="white" stroke="white" stroke-width="2"/>
<path d="M175.992 120.827C167.635 162.134 120.397 188.432 80.7534 173.59L80.1508 173.365L79.6957 173.82L58.6957 194.82L57.7058 195.81L58.9633 196.425C73.1874 203.386 89.0352 207.326 105.098 207.227C160.156 208.129 208.408 159.776 207.303 104.716C207.302 100.165 206.898 95.4268 206.397 90.8188L206.3 89.9268H205.403H33.4613C36.6742 69.6369 51.0175 52.1371 69.4208 41.7094C88.1662 31.0878 110.954 27.8993 130.197 36.4408L130.823 36.7186L131.308 36.2356L152.308 15.3356L153.248 14.4005L152.091 13.7539C116.791 -5.96954 75.8995 0.682834 45.7599 22.1625C15.619 43.6431 -3.91567 80.0573 3.62012 120.012L3.77378 120.827H4.6028H175.992ZM49.1591 29.5189C74.8978 10.5234 109.239 3.27696 139.57 16.7374L128.852 27.3676C106.284 19.1473 80.8002 24.4519 60.7023 37.7045C40.4251 51.0753 25.4693 72.643 24.5036 96.887L24.4622 97.9268H25.5028H198.982C200.701 120.305 193.872 143.661 180.408 161.321L180.4 161.331L180.392 161.342C156.553 194.365 109.702 208.19 71.5778 193.166L82.2788 182.465C128.646 197.085 180.759 162.35 185.199 113.918L185.299 112.827H184.203H10.7715C6.24741 79.4961 23.2712 48.6247 49.1591 29.5189Z" fill="white" stroke="white" stroke-width="2"/>
<path d="M201.703 75.1269H203.077L202.654 73.8193C196.193 53.8284 183.773 36.0556 166.806 23.2291L166.111 22.7041L165.496 23.3197L145.796 43.0198L144.953 43.8626L145.929 44.5461C156.795 52.1525 165.772 62.5164 171.191 74.5378L171.457 75.1269H172.103H201.703ZM156.989 43.055L166.653 33.3904C177.423 42.7546 185.953 54.2246 191.498 67.1269H176.412C171.635 57.9472 165.044 49.7797 156.989 43.055Z" fill="white" stroke="white" stroke-width="2"/>
</svg>
