<svg width="24" height="24" viewBox="0 0 24 24" fill="none" xmlns="http://www.w3.org/2000/svg">
<g clip-path="url(#clip0_10_17)">
<path d="M18.7104 19.5657L15.4279 18.2431C16.023 16.9505 16.4379 15.5979 16.7084 14.2332L18.7104 19.5657ZM8.38194 18.2431L5.09945 19.5657L7.10141 14.2332C7.37194 15.5979 7.78676 16.9505 8.38194 18.2431ZM11.436 4.96884C11.6043 4.80051 11.7546 4.65021 11.9109 4.55402C12.8488 5.28747 14.4539 7.12109 14.4539 11.0649C14.46 13.1149 14.0271 15.1229 13.1794 17.0167L10.6244 17.0467C9.78872 15.1049 9.35586 13.0969 9.35586 11.0649C9.35586 7.74633 10.4861 5.91872 11.436 4.96884ZM10.2336 3.76646C9.04325 4.95681 7.6545 7.1752 7.6545 11.0709C7.6545 13.7041 8.31581 15.9405 9.07331 17.72C9.35586 18.3393 9.96306 18.718 10.6304 18.724L13.1854 18.718C13.6423 18.718 14.0872 18.5497 14.4058 18.2311C14.5441 18.0928 14.6523 17.9124 14.7365 17.72C15.6733 15.6286 16.1568 13.3626 16.1553 11.0709C16.1553 4.26545 11.9049 2.56408 11.9049 2.56408C11.9049 2.56408 11.1234 2.8767 10.2336 3.76646ZM11.9049 11.0649C10.967 11.0649 10.2035 10.3014 10.2035 9.36353C10.2035 8.42567 10.9671 7.66216 11.9049 7.66216C12.8367 7.66817 13.6063 8.42567 13.6063 9.36353C13.6063 10.3014 12.8428 11.0649 11.9049 11.0649ZM14.4539 23.5937V19.217C14.1954 19.3673 13.9069 19.4755 13.6003 19.5296L13.6063 24.4413L14.4539 23.5937ZM11.9049 26.1427L12.7526 25.295L12.7586 19.5657L11.0572 19.5717L11.0572 25.295L11.9049 26.1427ZM10.2035 24.4413L10.2096 19.5296C9.90295 19.4755 9.62039 19.3733 9.35586 19.217L9.35586 23.5937L10.2035 24.4413Z" fill="#0046E4"/>
</g>
<defs>
<clipPath id="clip0_10_17">
<rect width="24" height="24" fill="white"/>
</clipPath>
</defs>
</svg>
