<svg width="24" height="24" viewBox="0 0 24 24" fill="none" xmlns="http://www.w3.org/2000/svg">
<path d="M3.28664 6.6398C3.42503 6.44229 3.60896 6.28104 3.82286 6.16967C4.03677 6.0583 4.27435 6.0001 4.51551 6H8.25V3.75C8.25045 3.35231 8.40862 2.97104 8.68983 2.68983C8.97104 2.40863 9.35231 2.25045 9.75 2.25H21.75C22.1477 2.25045 22.529 2.40863 22.8102 2.68983C23.0914 2.97104 23.2496 3.35231 23.25 3.75V19.125H20.7618C20.63 19.8611 20.2436 20.5273 19.6701 21.0072C19.0967 21.4871 18.3728 21.7501 17.625 21.7501C16.8772 21.7501 16.1533 21.4871 15.5799 21.0072C15.0064 20.5273 14.62 19.8611 14.4882 19.125H9.51178C9.38 19.8611 8.99358 20.5273 8.42014 21.0072C7.84669 21.4871 7.12275 21.7501 6.375 21.7501C5.62724 21.7501 4.9033 21.4871 4.32986 21.0072C3.75642 20.5273 3.36999 19.8611 3.23822 19.125H0.749998V10.6182C0.749634 10.3873 0.820659 10.162 0.953343 9.97308L3.28664 6.6398ZM21.7509 3.75H9.75V12H21.75L21.7509 3.75ZM17.625 20.25C17.9588 20.25 18.285 20.151 18.5625 19.9656C18.84 19.7802 19.0563 19.5166 19.184 19.2083C19.3118 18.8999 19.3452 18.5606 19.2801 18.2333C19.215 17.9059 19.0542 17.6053 18.8182 17.3693C18.5822 17.1333 18.2816 16.9725 17.9542 16.9074C17.6269 16.8423 17.2876 16.8757 16.9792 17.0035C16.6709 17.1312 16.4073 17.3475 16.2219 17.625C16.0365 17.9025 15.9375 18.2287 15.9375 18.5625C15.938 19.0099 16.1159 19.4388 16.4323 19.7552C16.7487 20.0716 17.1776 20.2495 17.625 20.25ZM6.375 20.25C6.70875 20.25 7.03502 20.151 7.31252 19.9656C7.59003 19.7802 7.80632 19.5166 7.93405 19.2083C8.06177 18.8999 8.09519 18.5606 8.03007 18.2333C7.96496 17.9059 7.80424 17.6053 7.56824 17.3693C7.33224 17.1333 7.03156 16.9725 6.70421 16.9074C6.37687 16.8423 6.03757 16.8757 5.72922 17.0035C5.42087 17.1312 5.15732 17.3475 4.97189 17.625C4.78647 17.9025 4.6875 18.2287 4.6875 18.5625C4.68799 19.0099 4.86594 19.4388 5.1823 19.7552C5.49866 20.0716 5.9276 20.2495 6.375 20.25ZM2.25 17.625H3.32841C3.52885 16.9734 3.9329 16.4033 4.48123 15.9983C5.02957 15.5933 5.69331 15.3747 6.375 15.3747C7.05669 15.3747 7.72043 15.5933 8.26876 15.9983C8.8171 16.4033 9.22115 16.9734 9.42159 17.625H14.5784C14.7788 16.9734 15.1829 16.4033 15.7312 15.9983C16.2796 15.5933 16.9433 15.3747 17.625 15.3747C18.3067 15.3747 18.9704 15.5933 19.5188 15.9983C20.0671 16.4033 20.4712 16.9734 20.6716 17.625H21.75V13.5H2.25V17.625ZM2.25 12H8.25V7.5H4.51551L2.25 10.7364V12Z" fill="#E7133D"/>
</svg>
